<?xml version="1.0" encoding="iso-8859-1"?>
<!-- Generator: Adobe Illustrator 19.0.0, SVG Export Plug-In . SVG Version: 6.00 Build 0)  -->
<svg version="1.1" id="Layer_1" xmlns="http://www.w3.org/2000/svg" xmlns:xlink="http://www.w3.org/1999/xlink" x="0px" y="0px"
	 viewBox="0 0 512 512" style="enable-background:new 0 0 512 512;" xml:space="preserve">
<g>
	<polyline style="fill:#EDB529;" points="123.225,122.081 123.225,12.971 56.312,12.971 56.312,164.78 	"/>
	<polyline style="fill:#EDB529;" points="455.699,164.78 455.699,12.971 388.786,12.971 388.786,122.081 	"/>
</g>
<g>
	<path style="fill:#FCF6D6;" d="M410.219,45.902c-7.189,0-10.565-9.34-4.971-13.899c5.534-4.511,14.019,0.447,12.674,7.512
		C417.225,43.169,413.948,45.902,410.219,45.902z"/>
	<path style="fill:#FCF6D6;" d="M410.219,73.086c-3.339,0-6.405-2.207-7.441-5.381c-0.993-3.045-0.023-6.486,2.468-8.517
		c2.743-2.236,6.706-2.347,9.575-0.281c2.514,1.81,3.72,5.046,3.039,8.061C417.065,70.497,413.845,73.086,410.219,73.086z"/>
	<path style="fill:#FCF6D6;" d="M410.219,100.269c-3.27,0-6.285-2.117-7.38-5.197c-1.112-3.127-0.097-6.752,2.529-8.799
		c5.45-4.249,13.649,0.398,12.605,7.307C417.398,97.374,414.067,100.269,410.219,100.269z"/>
	<path style="fill:#FCF6D6;" d="M434.266,45.902c-7.114,0-10.52-9.175-5.092-13.802c5.541-4.722,14.21,0.359,12.776,7.497
		C441.223,43.22,437.965,45.902,434.266,45.902z"/>
	<path style="fill:#FCF6D6;" d="M434.266,73.086c-6.921,0-10.416-8.722-5.425-13.493c2.272-2.173,5.728-2.78,8.6-1.507
		c3.11,1.379,5.034,4.73,4.602,8.119C441.549,70.083,438.192,73.086,434.266,73.086z"/>
	<path style="fill:#FCF6D6;" d="M434.266,100.269c-7.114,0-10.52-9.176-5.092-13.802c5.537-4.718,14.217,0.357,12.776,7.497
		C441.22,97.586,437.968,100.269,434.266,100.269z"/>
	<path style="fill:#FCF6D6;" d="M77.745,45.902c-6.965,0-10.456-8.886-5.309-13.604c5.045-4.626,13.483-0.71,13.141,6.148
		C85.371,42.566,81.873,45.902,77.745,45.902z"/>
	<path style="fill:#FCF6D6;" d="M77.745,73.086c-3.149,0-6.025-1.944-7.235-4.841c-1.338-3.206-0.332-7.048,2.416-9.178
		c5.388-4.173,13.462,0.35,12.6,7.148C85.033,70.084,81.656,73.086,77.745,73.086z"/>
	<path style="fill:#FCF6D6;" d="M77.745,100.269c-6.976,0-10.461-8.881-5.309-13.604c2.434-2.232,6.088-2.681,9.004-1.151
		c2.831,1.486,4.486,4.728,4.085,7.889C85.034,97.27,81.653,100.269,77.745,100.269z"/>
	<path style="fill:#FCF6D6;" d="M101.792,45.902c-6.894,0-10.436-8.703-5.425-13.494c2.275-2.176,5.719-2.785,8.601-1.514
		c3.114,1.373,5.033,4.746,4.602,8.128C109.075,42.9,105.718,45.902,101.792,45.902z"/>
	<path style="fill:#FCF6D6;" d="M101.792,73.086c-6.885,0-10.448-8.707-5.425-13.493c2.276-2.169,5.725-2.781,8.601-1.507
		c3.112,1.379,5.034,4.728,4.602,8.119C109.075,70.083,105.718,73.086,101.792,73.086z"/>
	<path style="fill:#FCF6D6;" d="M101.792,100.269c-3.06,0-5.931-1.862-7.16-4.665c-1.379-3.146-0.545-6.928,2.091-9.151
		c5.379-4.539,13.887,0.098,12.821,7.128C108.97,97.374,105.64,100.269,101.792,100.269z"/>
	<path style="fill:#FCF6D6;" d="M512,281.227v123.706c0,0-56.301,94.096-255.995,94.096c-60.713,0-108.472-9.169-145.442-21.778
		C29.107,449.451,0,404.933,0,404.933V281.227c0-51.126,28.375-97.442,74.294-131.076c46.379-33.99,110.668-55.026,181.711-55.026
		C397.39,95.125,512,178.454,512,281.227z"/>
</g>
<path style="fill:#EAE3C5;" d="M108.765,473.98c0.68,1.119,1.286,2.206,1.798,3.272C29.107,449.453,0,404.934,0,404.934V281.228
	c0-51.126,28.375-97.442,74.294-131.076l36.489,8.887l-16.99,146.947C93.793,305.987,65.993,403.648,108.765,473.98z"/>
<path style="fill:#666666;" d="M473.198,182.679c6.879,11.95,10.581,24.685,10.581,37.89c0,69.276-101.98,125.441-227.776,125.441
	S28.226,289.844,28.226,220.568c0-13.205,3.701-25.939,10.581-37.89c45.24-52.579,125.598-87.552,217.196-87.552
	c91.577,0,171.914,34.962,217.175,87.52C473.177,182.658,473.187,182.668,473.198,182.679z"/>
<path style="fill:#3FD154;" d="M372.999,171.366c37.931,28.177,65.282,74.545,82.104,110.187
	c-38.914,38.444-113.48,64.456-199.087,64.456c-85.931,0-160.748-26.211-199.537-64.906c16.822-35.579,44.1-81.676,81.885-109.737
	L372.999,171.366L372.999,171.366z"/>
<path style="fill:#EDB529;" d="M268.092,327.194l54.723-34.648l46.244-29.281l-19.303-12.222
	c-51.902-32.862-136.051-32.862-187.953,0l-19.303,12.222l46.244,29.281l54.723,34.648"/>
<polyline style="fill:#68EA77;" points="268.092,327.194 322.816,292.546 255.78,250.102 188.746,292.546 243.469,327.194 "/>
<ellipse style="fill:#EA5149;" cx="255.786" cy="334.994" rx="17.409" ry="11.023"/>
<path style="fill:#666666;" d="M512,347.754v22.834c-9.19,8.688-22.468,19.321-40.775,29.923
	c-24.235,14.02-52.454,25.176-83.892,33.164c-39.061,9.911-83.244,14.94-131.327,14.94c-58.695,0-143.309-8.343-213.129-48.073
	C23.597,389.574,9.598,378.586,0,369.751v-22.405c6.984,7.967,23.221,24.141,51.669,40.148
	c66.683,37.555,147.92,45.438,204.336,45.438C428.745,432.932,496.045,367.012,512,347.754z"/>
<g>
</g>
<g>
</g>
<g>
</g>
<g>
</g>
<g>
</g>
<g>
</g>
<g>
</g>
<g>
</g>
<g>
</g>
<g>
</g>
<g>
</g>
<g>
</g>
<g>
</g>
<g>
</g>
<g>
</g>
</svg>
